<?xml version="1.0" encoding="UTF-8" standalone="no"?>
<!-- Created with Inkscape (http://www.inkscape.org/) -->

<svg
   version="1.1"
   id="svg1"
   width="420.98001"
   height="233.94"
   viewBox="0 0 420.98001 233.94"
   sodipodi:docname="A9fjykr0_7l4y4n_gic.pdf"
   xmlns:inkscape="http://www.inkscape.org/namespaces/inkscape"
   xmlns:sodipodi="http://sodipodi.sourceforge.net/DTD/sodipodi-0.dtd"
   xmlns="http://www.w3.org/2000/svg"
   xmlns:svg="http://www.w3.org/2000/svg">
  <defs
     id="defs1" />
  <sodipodi:namedview
     id="namedview1"
     pagecolor="#ffffff"
     bordercolor="#000000"
     borderopacity="0.25"
     inkscape:showpageshadow="2"
     inkscape:pageopacity="0.0"
     inkscape:pagecheckerboard="0"
     inkscape:deskcolor="#d1d1d1">
    <inkscape:page
       x="0"
       y="0"
       width="420.98001"
       height="233.94"
       id="page2"
       margin="0"
       bleed="0" />
  </sodipodi:namedview>
  <g
     id="g1"
     inkscape:groupmode="layer"
     inkscape:label="1"
     transform="translate(-91.199997,-200)">
    <path
       id="path1"
       d="m 1373,3951 h 767 v 163 h -767 z"
       style="fill:#ffffff;fill-opacity:1;fill-rule:evenodd;stroke:none"
       transform="matrix(0.16,0,0,-0.16,0,864)" />
    <path
       id="path2"
       d="m 1372,3951 h 768 v 163 h -768 z"
       style="fill:none;stroke:#000000;stroke-width:6.25;stroke-linecap:round;stroke-linejoin:miter;stroke-miterlimit:8;stroke-dasharray:none;stroke-opacity:1"
       transform="matrix(0.16,0,0,-0.16,0,864)" />
    <path
       id="path3"
       d="m 1373,3659 h 767 v 292 h -767 z"
       style="fill:#ffffff;fill-opacity:1;fill-rule:evenodd;stroke:none"
       transform="matrix(0.16,0,0,-0.16,0,864)" />
    <path
       id="path4"
       d="m 1372,3659 h 768 v 292 h -768 z"
       style="fill:none;stroke:#000000;stroke-width:6.25;stroke-linecap:round;stroke-linejoin:miter;stroke-miterlimit:8;stroke-dasharray:none;stroke-opacity:1"
       transform="matrix(0.16,0,0,-0.16,0,864)" />
    <path
       id="path5"
       d="m 1373,2691 h 767 v 401 h -767 z"
       style="fill:#ffffff;fill-opacity:1;fill-rule:evenodd;stroke:none"
       transform="matrix(0.16,0,0,-0.16,0,864)" />
    <path
       id="path6"
       d="m 1372,2691 h 768 v 401 h -768 z"
       style="fill:none;stroke:#000000;stroke-width:6.25;stroke-linecap:round;stroke-linejoin:miter;stroke-miterlimit:8;stroke-dasharray:none;stroke-opacity:1"
       transform="matrix(0.16,0,0,-0.16,0,864)" />
    <path
       id="path7"
       d="m 1409,2727 h 693 v 329 h -693 z"
       style="fill:#ffffff;fill-opacity:1;fill-rule:evenodd;stroke:none"
       transform="matrix(0.16,0,0,-0.16,0,864)" />
    <text
       id="text7"
       xml:space="preserve"
       transform="matrix(1.3333333,0,0,1.3274924,242.39987,222.08027)"><tspan
         id="tspan7"
         style="font-variant:normal;font-weight:700;font-size:9.0396px;font-family:Helvetica;writing-mode:lr-tb;fill:#000000;fill-opacity:1;fill-rule:nonzero;stroke:none"
         x="0"
         dx="0 -0.046400271 0 0 -0.010043 0.01416505 0 0.01416505 0.01416505 -0.010043 0 0.083670542 -0.46583772"
         y="0">RouteFactory </tspan><tspan
         id="tspan8"
         style="font-variant:normal;font-weight:normal;font-size:9.0396px;font-family:Helvetica;writing-mode:lr-tb;fill:#000000;fill-opacity:1;fill-rule:nonzero;stroke:none"
         x="11.040365"
         dx="0 -0.046400271 0.01416505 0.01416505 0.0070328098 0.01416505 0.0071322401 0.0070328098 -0.046400271"
         y="137.40192">Route ID </tspan></text>
    <path
       id="path8"
       d="m 0,0 v -289 l -3,-1 -2,1 -1,2 V 0 l 1,2 2,1 2,-1 z m 22,-278 -25,-50 -25,50"
       style="fill:#000000;fill-opacity:1;fill-rule:nonzero;stroke:none"
       transform="matrix(0.16,0,0,-0.16,249.28,299.2)" />
    <path
       id="path9"
       d="m 0,0 v 286 l 1,3 H 6 V -3 H 1 Z m -22,278 25,50 25,-50"
       style="fill:#000000;fill-opacity:1;fill-rule:nonzero;stroke:none"
       transform="matrix(0.16,0,0,-0.16,300.8,351.68)" />
    <path
       id="path10"
       d="m 825,3311 h 693 v 146 H 825 Z"
       style="fill:#ffffff;fill-opacity:1;fill-rule:evenodd;stroke:none"
       transform="matrix(0.16,0,0,-0.16,0,864)" />
    <text
       id="text10"
       xml:space="preserve"
       transform="matrix(1.3333333,0,0,1.3274924,255.04,417.92013)"><tspan
         id="tspan10"
         style="font-variant:normal;font-weight:normal;font-size:9.0396px;font-family:Helvetica;writing-mode:lr-tb;fill:#000000;fill-opacity:1;fill-rule:nonzero;stroke:none"
         x="0"
         dx="0 0.01416505 0.01416505 0.01416505 0.01416505 -0.01014243 -0.10586276 0.0071322401 0.01416505 -0.01014243"
         y="0">generator </tspan></text>
    <path
       id="path11"
       d="m 1956,3311 h 474 v 146 h -474 z"
       style="fill:#ffffff;fill-opacity:1;fill-rule:evenodd;stroke:none"
       transform="matrix(0.16,0,0,-0.16,0,864)" />
    <path
       id="path12"
       d="m 2430,3951 h 768 v 163 h -768 z"
       style="fill:#ffffff;fill-opacity:1;fill-rule:evenodd;stroke:#000000;stroke-width:6.25;stroke-linecap:round;stroke-linejoin:miter;stroke-miterlimit:8;stroke-dasharray:none;stroke-opacity:1"
       transform="matrix(0.16,0,0,-0.16,0,864)" />
    <text
       id="text12"
       xml:space="preserve"
       transform="matrix(1.3333333,0,0,1.3274924,172.79987,326.08027)"><tspan
         id="tspan12"
         style="font-variant:normal;font-weight:normal;font-size:9.0396px;font-family:Helvetica;writing-mode:lr-tb;fill:#000000;fill-opacity:1;fill-rule:nonzero;stroke:none"
         x="0"
         dx="0 0.01416505 0.01416505 0.0070328098 -0.046400271 0.01416505 -0.19967572 0.0071322401 0.0070328098 -0.046300828 -0.01014243 -0.010043 63.249859 -0.046400271 0.01416505 0.01416505 0.01416505 0.01416505"
         y="0">getNextID() R2345 </tspan></text>
    <path
       id="path13"
       d="m 2430,3659 h 768 v 292 h -768 z"
       style="fill:#ffffff;fill-opacity:1;fill-rule:evenodd;stroke:#000000;stroke-width:6.25;stroke-linecap:round;stroke-linejoin:miter;stroke-miterlimit:8;stroke-dasharray:none;stroke-opacity:1"
       transform="matrix(0.16,0,0,-0.16,0,864)" />
    <text
       id="text13"
       xml:space="preserve"
       transform="matrix(1.3333333,0,0,1.3274924,433.27987,222.08027)"><tspan
         id="tspan13"
         style="font-variant:normal;font-weight:700;font-size:9.0396px;font-family:Helvetica;writing-mode:lr-tb;fill:#000000;fill-opacity:1;fill-rule:nonzero;stroke:none"
         x="0"
         dx="0 -0.046400271 0 0 -0.010043 0.01416505"
         y="0">Route </tspan><tspan
         id="tspan14"
         style="font-variant:normal;font-weight:normal;font-size:9.0396px;font-family:Helvetica;writing-mode:lr-tb;fill:#000000;fill-opacity:1;fill-rule:nonzero;stroke:none"
         x="-26.28113"
         dx="0 0.040379889 0.01406562 -0.10576332 0.040280461 0.0071322401 -0.01014243 0.01416505 -0.086680718 0.01406562 0.0071322401"
         y="19.525536">constraint </tspan></text>
    <path
       id="path14"
       d="m 2430,2983 h 768 v 163 h -768 z"
       style="fill:#ffffff;fill-opacity:1;fill-rule:evenodd;stroke:#000000;stroke-width:6.25;stroke-linecap:round;stroke-linejoin:miter;stroke-miterlimit:8;stroke-dasharray:none;stroke-opacity:1"
       transform="matrix(0.16,0,0,-0.16,0,864)" />
    <path
       id="path15"
       d="m 2430,2691 h 768 v 292 h -768 z"
       style="fill:#ffffff;fill-opacity:1;fill-rule:evenodd;stroke:none"
       transform="matrix(0.16,0,0,-0.16,0,864)" />
    <text
       id="text15"
       xml:space="preserve"
       transform="matrix(1.3333333,0,0,1.3274924,398.23987,261.44027)"><tspan
         id="tspan15"
         style="font-variant:normal;font-weight:normal;font-size:9.0396px;font-family:Helvetica;writing-mode:lr-tb;fill:#000000;fill-opacity:1;fill-rule:nonzero;stroke:none"
         x="0"
         dx="0 0.040280461 0.033347081 0.0070328098 -0.086680718 0.01406562 0.040379889 0.0070328098 -0.11289556 0.0071322401"
         y="0">cities[ ] </tspan></text>
    <path
       id="path16"
       d="m 2430,2691 h 768 v 292 h -768 z"
       style="fill:none;stroke:#000000;stroke-width:6.25;stroke-linecap:round;stroke-linejoin:miter;stroke-miterlimit:8;stroke-dasharray:none;stroke-opacity:1"
       transform="matrix(0.16,0,0,-0.16,0,864)" />
    <text
       id="text16"
       xml:space="preserve"
       transform="matrix(1.3333333,0,0,1.3274924,439.03987,376.96013)"><tspan
         id="tspan16"
         style="font-variant:normal;font-weight:700;font-size:9.0396px;font-family:Helvetica;writing-mode:lr-tb;fill:#000000;fill-opacity:1;fill-rule:nonzero;stroke:none"
         x="0"
         dx="0 -0.046400271 0.0071322401 0.22990415 -0.34591836"
         y="0">City </tspan><tspan
         id="tspan17"
         style="font-variant:normal;font-weight:normal;font-size:9.0396px;font-family:Helvetica;writing-mode:lr-tb;fill:#000000;fill-opacity:1;fill-rule:nonzero;stroke:none"
         x="-30.601055"
         dx="0 0.01416505 0.01416505 0.030228419 0.01416505"
         y="19.525536">name </tspan></text>
    <path
       id="path17"
       d="m 0,0 v -471 l -1,-3 -2,-1 -3,1 V 2 l 3,1 2,-1 z m 22,-463 -25,-50 -25,50"
       style="fill:#000000;fill-opacity:1;fill-rule:nonzero;stroke:none"
       transform="matrix(0.16,0,0,-0.16,453.6,278.56)" />
    <path
       id="path18"
       d="m 0,0 h 177 l 3,-1 1,-2 -1,-2 -3,-1 H 0 l -2,1 -1,2 1,2 z m 169,22 50,-25 -50,-25"
       style="fill:#000000;fill-opacity:1;fill-rule:nonzero;stroke:none"
       transform="matrix(0.16,0,0,-0.16,348,240.32)" />
    <path
       id="path19"
       d="m 2175,3951 h 219 v 93 h -219 z"
       style="fill:#ffffff;fill-opacity:1;fill-rule:evenodd;stroke:none"
       transform="matrix(0.16,0,0,-0.16,0,864)" />
    <text
       id="text19"
       xml:space="preserve"
       transform="matrix(1.3333333,0,0,1.3274924,398.23987,416.32013)"><tspan
         id="tspan19"
         style="font-variant:normal;font-weight:normal;font-size:9.0396px;font-family:Helvetica;writing-mode:lr-tb;fill:#000000;fill-opacity:1;fill-rule:nonzero;stroke:none"
         x="0"
         dx="0 0.03324765 0.01416505 0.040379889 -0.10586276 0.0070328098 0.03324765 0.01416505 0.01416505"
         y="0">location </tspan><tspan
         id="tspan20"
         style="font-variant:normal;font-weight:normal;font-size:9.0396px;font-family:Helvetica;writing-mode:lr-tb;fill:#000000;fill-opacity:1;fill-rule:nonzero;stroke:none"
         x="-32.76152"
         dx="0 0.01416505 0.01416505"
         y="-140.41512">new</tspan></text>
    <path
       id="path20"
       d="m 0,0 h 505 l 2,-1 1,-2 -1,-2 -2,-1 H 0 l -2,1 -1,2 1,2 z m 497,22 50,-25 -50,-25"
       style="fill:#000000;fill-opacity:1;fill-rule:nonzero;stroke:none"
       transform="matrix(0.16,0,0,-0.16,114.56,222.88)" />
    <path
       id="path21"
       d="m 570,4044 h 766 v 106 H 570 Z"
       style="fill:#ffffff;fill-opacity:1;fill-rule:evenodd;stroke:none"
       transform="matrix(0.16,0,0,-0.16,0,864)" />
    <path
       id="path22"
       d="m 0,0 h -470 l -2,1 -1,2 1,2 2,1 H 0 L 2,5 3,3 2,1 Z m -461,-22 -50,25 50,25"
       style="fill:#000000;fill-opacity:1;fill-rule:nonzero;stroke:none"
       transform="matrix(0.16,0,0,-0.16,196.32,264.64)" />
    <path
       id="path23"
       d="m 570,3788 h 766 v 107 H 570 Z"
       style="fill:#ffffff;fill-opacity:1;fill-rule:evenodd;stroke:none"
       transform="matrix(0.16,0,0,-0.16,0,864)" />
    <text
       id="text23"
       xml:space="preserve"
       transform="matrix(1.3333333,0,0,1.3276245,137.76,251.84027)"><tspan
         id="tspan23"
         style="font-variant:normal;font-weight:normal;font-size:7.59251px;font-family:Helvetica;writing-mode:lr-tb;fill:#000000;fill-opacity:1;fill-rule:nonzero;stroke:none"
         x="0"
         dx="0 -0.081953533 -0.02159309 -0.02159309 -0.02159309 -0.02159309"
         y="0">R2345 </tspan><tspan
         id="tspan24"
         style="font-variant:normal;font-weight:normal;font-size:7.59251px;font-family:Helvetica;writing-mode:lr-tb;fill:#000000;fill-opacity:1;fill-rule:nonzero;stroke:none"
         x="-28.198736"
         dx="0 0.04358859 -0.0083365701 -0.02159309 -0.14160787 0.049207039 -0.02159309 -0.082052231 -0.14160787 -0.02159309 0.049207039 -0.14150916 -0.0084352801 -0.076426193 -0.02159309 -0.14150916 0.04358859 0.049207039 -0.12845005 -0.02159309 -0.0055273501 -0.14160787 0.049207039 -0.0084352801"
         y="-30.731581">createRoute(constraint) </tspan></text>
  </g>
</svg>
